<svg xmlns="http://www.w3.org/2000/svg" viewBox="0 0 1440 320"><path fill="#0099ff" fill-opacity="1" d="M0,288L21.8,245.3C43.6,203,87,117,131,96C174.5,75,218,117,262,128C305.5,139,349,117,393,117.3C436.4,117,480,139,524,122.7C567.3,107,611,53,655,53.3C698.2,53,742,107,785,144C829.1,181,873,203,916,229.3C960,256,1004,288,1047,288C1090.9,288,1135,256,1178,218.7C1221.8,181,1265,139,1309,128C1352.7,117,1396,139,1418,149.3L1440,160L1440,0L1418.2,0C1396.4,0,1353,0,1309,0C1265.5,0,1222,0,1178,0C1134.5,0,1091,0,1047,0C1003.6,0,960,0,916,0C872.7,0,829,0,785,0C741.8,0,698,0,655,0C610.9,0,567,0,524,0C480,0,436,0,393,0C349.1,0,305,0,262,0C218.2,0,175,0,131,0C87.3,0,44,0,22,0L0,0Z"></path></svg>